<svg width="31" height="31" viewBox="0 0 31 31" fill="none" xmlns="http://www.w3.org/2000/svg">
<path fill-rule="evenodd" clip-rule="evenodd" d="M12.174 3.50264C12.6638 3.99241 12.6638 4.78648 12.174 5.27625L9.66574 7.78451C9.17597 8.27428 8.3819 8.27428 7.89213 7.78451C7.40236 7.29474 7.40236 6.50067 7.89213 6.0109L10.4004 3.50264C10.8902 3.01287 11.6842 3.01287 12.174 3.50264ZM17.1905 3.50264C17.6803 3.99241 17.6803 4.78648 17.1905 5.27625L14.6823 7.78451C14.1925 8.27428 13.3984 8.27428 12.9086 7.78451C12.4189 7.29474 12.4189 6.50067 12.9086 6.0109L15.4169 3.50264C15.9067 3.01287 16.7007 3.01287 17.1905 3.50264ZM22.207 3.50264C22.6968 3.99241 22.6968 4.78648 22.207 5.27625L19.6988 7.78451C19.209 8.27428 18.4149 8.27428 17.9252 7.78451C17.4354 7.29474 17.4354 6.50067 17.9252 6.0109L20.4334 3.50264C20.9232 3.01287 21.7173 3.01287 22.207 3.50264ZM5.01654 13.1684C5.01654 11.0904 6.70102 9.40597 8.77893 9.40597H21.3202C22.9833 9.40597 24.5783 10.0666 25.7543 11.2426C26.9302 12.4186 27.5909 14.0135 27.5909 15.6766C27.5909 17.3397 26.9302 18.9347 25.7543 20.1106C24.8784 20.9865 23.7701 21.5765 22.5744 21.8206V23.2014C22.5744 25.2793 20.8899 26.9638 18.812 26.9638H8.77893C6.70102 26.9638 5.01654 25.2793 5.01654 23.2014V13.1684ZM22.5744 19.2238C23.0985 19.0385 23.5801 18.7376 23.9806 18.337C24.6862 17.6314 25.0826 16.6745 25.0826 15.6766C25.0826 14.6788 24.6862 13.7218 23.9806 13.0162C23.5801 12.6156 23.0985 12.3147 22.5744 12.1294V19.2238ZM20.0661 11.9142H8.77893C8.08629 11.9142 7.5248 12.4757 7.5248 13.1684V23.2014C7.5248 23.894 8.08629 24.4555 8.77893 24.4555H18.812C19.5046 24.4555 20.0661 23.894 20.0661 23.2014V11.9142Z" fill="black"/>
</svg>
